<?xml version="1.0" encoding="UTF-8"?>
<svg version="1.1" xmlns="http://www.w3.org/2000/svg" width="476" height="434">
<path d="M0 0 C-0.0721875 0.95519531 -0.144375 1.91039062 -0.21875 2.89453125 C-0.50832239 6.92843547 -0.76463441 10.96265425 -1 15 C-1.08507812 16.37478516 -1.08507812 16.37478516 -1.171875 17.77734375 C-2.09443863 46.97648274 12.23085975 73.09294326 29 96 C31.34932565 99.32222372 33.67626391 102.65984235 36 106 C36.55985596 106.8029248 37.11971191 107.60584961 37.6965332 108.43310547 C56.8743687 136.10032196 71.63384001 163.46291883 66.31640625 198.171875 C62.46086202 219.17260214 53.56700369 238.524158 40 255 C39.24074219 255.92425781 38.48148438 256.84851563 37.69921875 257.80078125 C33.10509648 263.11672961 28.18009404 267.70967492 22.6875 272.0625 C22.10073486 272.52793213 21.51396973 272.99336426 20.90942383 273.47290039 C17.74533683 275.90073303 14.7917868 277.74081376 11 279 C11.59547348 274.28643278 12.94347344 270.42040749 14.8125 266.0625 C19.14461317 255.64826635 21.55274549 245.01264531 24 234 C17.73 234 11.46 234 5 234 C4.95875 235.505625 4.9175 237.01125 4.875 238.5625 C1.76273288 276.04308827 -17.40369306 308.53665173 -44.8203125 333.171875 C-48.56435316 336.31203813 -51.13731118 336.34733492 -56 336 C-58.33437972 332.49843042 -58.49431101 331.12099282 -58 327 C-56.34765625 324.71875 -56.34765625 324.71875 -54.0625 322.5 C-44.01197236 311.95804278 -34.81530951 298.09185124 -35 283 C-36.05983022 269.38005418 -43.90254225 259.34184466 -52.63476562 249.54638672 C-58.67729645 242.70207516 -64.2623046 235.45984762 -69.72680664 228.15039062 C-71.9489627 225.1079442 -71.9489627 225.1079442 -75 223 C-75.17015625 223.63808594 -75.3403125 224.27617187 -75.515625 224.93359375 C-75.75796875 225.75988281 -76.0003125 226.58617187 -76.25 227.4375 C-76.48203125 228.26121094 -76.7140625 229.08492187 -76.953125 229.93359375 C-77.29859375 230.61550781 -77.6440625 231.29742187 -78 232 C-80.06542969 232.62915039 -80.06542969 232.62915039 -82 233 C-84.18805823 228.3597479 -86.37510671 223.71902165 -88.5612793 219.07788086 C-89.30287373 217.50386155 -90.04472899 215.9299651 -90.78686523 214.35620117 C-94.91710799 205.59719006 -99.03195818 196.83412051 -103 188 C-103.07411371 193.49923749 -103.12858464 198.99818479 -103.16479492 204.49780273 C-103.17988873 206.36894799 -103.20036589 208.24005783 -103.22631836 210.11108398 C-103.26267593 212.79940526 -103.27972015 215.48725913 -103.29296875 218.17578125 C-103.31619453 219.43217155 -103.31619453 219.43217155 -103.33988953 220.71394348 C-103.48184616 225.00080325 -103.48184616 225.00080325 -101.64668274 228.70207214 C-99.51952757 230.37871202 -97.65151747 230.64168683 -95 231 C-95 231.66 -95 232.32 -95 233 C-102.26 233 -109.52 233 -117 233 C-117 232.34 -117 231.68 -117 231 C-114.69 230.01 -112.38 229.02 -110 228 C-109.97470729 220.91586059 -109.95715739 213.83173277 -109.94506836 206.74755859 C-109.94003026 204.33609583 -109.93319966 201.92463614 -109.92456055 199.51318359 C-109.91247213 196.05305221 -109.90676656 192.5929611 -109.90234375 189.1328125 C-109.89718246 188.04944611 -109.89202118 186.96607971 -109.88670349 185.84988403 C-109.88662796 184.8489975 -109.88655243 183.84811096 -109.88647461 182.81689453 C-109.88314369 181.49118942 -109.88314369 181.49118942 -109.87974548 180.13870239 C-109.86126056 177.94723225 -109.86126056 177.94723225 -111 176 C-112.97888961 175.27306096 -114.97954558 174.60183749 -117 174 C-117 173.34 -117 172.68 -117 172 C-111.06 172 -105.12 172 -99 172 C-99.474375 170.14375 -99.94875 168.2875 -100.4375 166.375 C-106.57946839 139.33287376 -101.86673646 110.80327251 -90 86 C-89.54584717 85.0402124 -89.54584717 85.0402124 -89.08251953 84.06103516 C-84.18042564 73.87537157 -78.01380853 64.84267795 -71 56 C-70.53078125 55.40832031 -70.0615625 54.81664062 -69.578125 54.20703125 C-53.01070957 33.58879172 -32.30891932 17.03121783 -9.375 4 C-8.32530029 3.40227783 -8.32530029 3.40227783 -7.25439453 2.79248047 C-2.24816684 0 -2.24816684 0 0 0 Z M-27 71 C-28.17700048 75.62459244 -28.11408412 80.07866462 -28.0625 84.8125 C-28.05798828 85.60076172 -28.05347656 86.38902344 -28.04882812 87.20117188 C-28.03711312 89.13414761 -28.01917998 91.06708393 -28 93 C-26.35 93 -24.7 93 -23 93 C-23.75015582 85.62346781 -24.83441535 78.32168224 -26 71 C-26.33 71 -26.66 71 -27 71 Z M-28 97 C-26.496907 106.71316919 -24.87501321 115.89273546 -21 125 C-16.84345641 124.53816182 -14.78533429 124.11990898 -12 121 C-13.12459545 118.1040094 -14.24974875 115.20823584 -15.375 112.3125 C-15.69210938 111.49587891 -16.00921875 110.67925781 -16.3359375 109.83789062 C-17.87248677 105.88447739 -19.41366503 101.93379025 -21 98 C-23.31 97.67 -25.62 97.34 -28 97 Z M-17 132 C-16.32512263 136.81919471 -14.42034091 140.91883866 -12.4375 145.3125 C-12.10814453 146.05306641 -11.77878906 146.79363281 -11.43945312 147.55664062 C-10.63082877 149.37311562 -9.81602884 151.18683931 -9 153 C-8.34 152.67 -7.68 152.34 -7 152 C-5.43688488 147.31065463 -5.47678421 143.48244475 -7.125 138.8125 C-9.33656285 135.49515573 -11.53034464 133.91938381 -15 132 C-15.66 132 -16.32 132 -17 132 Z M-2 160 C-2.99 160.495 -2.99 160.495 -4 161 C-3.43260132 165.12973628 -3.43260132 165.12973628 -2 169 C2.95 169 7.9 169 13 169 C9.04 162.07 9.04 162.07 5 155 C2.6668484 155 -0.29718921 158.57519914 -2 160 Z M0 173 C1 176 1 176 1 176 Z M12 174 C12 192.15 12 210.3 12 229 C15.01490557 230.00496852 17.04181692 230.10335303 20.1875 230.0625 C21.08855469 230.05347656 21.98960937 230.04445313 22.91796875 230.03515625 C23.60503906 230.02355469 24.29210937 230.01195312 25 230 C25.52004543 209.71022746 23.24767936 192.9518606 16 174 C14.68 174 13.36 174 12 174 Z M1 176 C2 179 2 179 2 179 Z M-79 215 C-78 217 -78 217 -78 217 Z " fill="#4CC043" transform="translate(271,61)"/>
<path d="M0 0 C2 1 2 1 2.82421875 3.2578125 C3.10910156 4.20398438 3.39398438 5.15015625 3.6875 6.125 C7.2005212 15.98946169 13.94988166 19.80958149 22.70703125 25.01953125 C34.49994158 32.11206451 42.47457407 38.16160608 46 52 C46.67896706 57.83653293 46.76657881 63.99030705 45.3125 69.69921875 C44.77815114 72.01494168 44.77815114 72.01494168 45.9765625 73.95703125 C50.57047611 79.12790558 55.62382489 82.43363515 61.5703125 85.921875 C72.72593456 92.53778746 80.58607784 98.90572398 84.2421875 111.64453125 C85.90476844 119.00616541 85.24929768 124.83036366 83 132 C82.58129447 134.66928121 82.58129447 134.66928121 83 137 C84.43750191 138.68798827 84.43750191 138.68798827 86 140 C86 140.66 86 141.32 86 142 C86.59039062 142.25394531 87.18078125 142.50789062 87.7890625 142.76953125 C90.24269555 144.13506908 91.57844906 145.54091684 93.375 147.6875 C95.96392839 150.78297034 95.96392839 150.78297034 98.6796875 153.765625 C105.76997598 161.31448935 106.56892766 169.18529855 106.35546875 179.33984375 C105.79585862 185.10198325 104.08324419 190.088478 100.703125 194.8125 C99.2676361 196.69927254 99.2676361 196.69927254 98 200 C98.91124013 204.51025578 101.15733348 208.40404068 103.2890625 212.44140625 C109.28253771 223.89519477 111.34892273 234.01295413 107.875 246.5625 C104.9719045 254.50043263 98.63591588 262.18204206 91 266 C90.01 265.67 89.02 265.34 88 265 C88.58007812 264.59910156 89.16015625 264.19820313 89.7578125 263.78515625 C97.51736553 258.13835281 103.11803152 251.28634289 106 242 C107.80139489 229.77053027 102.31393895 218.54300209 96.13671875 208.3046875 C95 206 95 206 95 202 C94.34 201.67 93.68 201.34 93 201 C91.97268797 195.96617105 90.61882194 188.76235611 93 184 C92.34 184.33 91.68 184.66 91 185 C90.97421875 186.07636719 90.9484375 187.15273437 90.921875 188.26171875 C90.66652855 195.51823107 90.25951265 202.06846839 87.875 209 C85.19095961 216.87643854 86.49793326 222.12883932 88.5625 230 C90.77603145 238.56115839 90.24907806 245.50571411 88 254 C88.99 254 89.98 254 91 254 C91 257 91 257 88.6875 259.375 C87.800625 260.24125 86.91375 261.1075 86 262 C80.45042077 270.05450153 79.8955754 280.23509303 79.5 289.75 C78.99659396 301.08988352 76.59384093 310.63304392 68.18359375 318.75390625 C60.47325737 324.96890466 50.97860746 328.51971914 41 328 C40.34 327.34 39.68 326.68 39 326 C39.82242188 325.90203125 40.64484375 325.8040625 41.4921875 325.703125 C52.77481149 324.19182664 63.02257458 321.79501247 70.24609375 312.375 C75.16352862 304.5935646 75.34112449 295.37366435 75.625 286.4375 C75.66367187 285.42880859 75.70234375 284.42011719 75.7421875 283.38085938 C75.83546203 280.9207436 75.92125516 278.46061634 76 276 C75.41992188 276.51691406 74.83984375 277.03382813 74.2421875 277.56640625 C67.78216123 283.01372213 67.78216123 283.01372213 63.4375 282.9375 C62.2309375 282.4734375 62.2309375 282.4734375 61 282 C60.938125 283.175625 60.87625 284.35125 60.8125 285.5625 C59.53142194 296.67102619 55.72033372 306.83138884 48 315 C47.43152344 315.63421875 46.86304688 316.2684375 46.27734375 316.921875 C42.38349021 321.07295349 38.11131145 324.45021935 33 327 C32.34 327 31.68 327 31 327 C30.60341614 328.31227342 30.20782485 329.62484676 29.8125 330.9375 C29.53792969 331.84242188 29.26335937 332.74734375 28.98046875 333.6796875 C28.24826059 336.15927689 27.54559193 338.63955694 26.86328125 341.1328125 C23.07645674 354.81802201 19.47747124 363.62830307 6.88671875 371.28515625 C-0.88803328 375.49710929 -10.53440667 376.42921446 -19.0625 374 C-20.031875 373.67 -21.00125 373.34 -22 373 C-22 372.67 -22 372.34 -22 372 C-20.93523437 372.05800781 -19.87046875 372.11601562 -18.7734375 372.17578125 C-7.29058557 372.61067731 4.13417284 371.92174757 13.125 363.75 C19.04362277 356.807856 20.89602005 348.20302764 23.0703125 339.55078125 C23.91894117 336.30959026 24.9016024 333.16396832 26 330 C25.34 330.165 24.68 330.33 24 330.5 C19.79741967 331.20043005 14.89583941 331.9479197 11 330 C10.75765625 330.81597656 10.5153125 331.63195312 10.265625 332.47265625 C8.75859862 336.67279457 6.8325456 340.49877246 4.75 344.4375 C4.38003906 345.16259766 4.01007813 345.88769531 3.62890625 346.63476562 C-3.18877448 359.58370531 -13.23988708 366.33901708 -27 371 C-31.06972692 371.85341587 -34.97057355 372.16093717 -39.125 372.1875 C-40.13820313 372.20167969 -41.15140625 372.21585937 -42.1953125 372.23046875 C-45.0422643 371.99652703 -46.66253939 371.62114204 -49 370 C-49.495 368.515 -49.495 368.515 -50 367 C-49.34 366.01 -48.68 365.02 -48 364 C-45.57421875 363.59375 -45.57421875 363.59375 -42.6875 363.5 C-36.85148817 363.10510921 -36.85148817 363.10510921 -32 360 C-29.88086305 355.63804106 -29.08789425 351.02726039 -28.125 346.3125 C-24.92433553 331.44865002 -20.10654572 320.57050328 -7 312 C3.89646599 305.76512374 14.77958765 305.67983867 27 307 C26.96519531 306.05640625 26.93039062 305.1128125 26.89453125 304.140625 C26.60442955 290.3815159 28.55323538 277.23031555 38.19921875 266.72265625 C46.09227286 259.17203399 54.73298694 255.97058911 65 253 C64.51789063 252.01 64.03578125 251.02 63.5390625 250 C62.90065377 248.66685235 62.26265487 247.33350839 61.625 246 C61.30789063 245.35160156 60.99078125 244.70320312 60.6640625 244.03515625 C55.44634417 233.05620726 54.70841449 222.78846118 57.875 211.05078125 C59.76994322 205.9120637 62.53437293 201.24226157 66 197 C66.66 197 67.32 197 68 197 C63.94598829 192.16090795 63.94598829 192.16090795 59.5 187.6875 C52.03680173 179.66456186 48.6052114 170.62259783 48.625 159.75 C48.62371094 159.01144775 48.62242187 158.27289551 48.62109375 157.51196289 C48.74318303 151.14042873 50.21642991 145.75353996 53 140 C52.45988281 139.89816406 51.91976562 139.79632813 51.36328125 139.69140625 C41.55565802 136.82206855 33.64491531 130.19830518 28.5390625 121.515625 C24.64044961 114.07896457 22.66198768 107.25615959 22.8125 98.875 C22.8134668 97.84052734 22.8134668 97.84052734 22.81445312 96.78515625 C22.84639703 93.07256495 23.12216209 89.60966947 24 86 C20.34481921 83.90041834 16.68301081 81.81756631 12.9921875 79.78125 C12.31542969 79.40613281 11.63867188 79.03101562 10.94140625 78.64453125 C9.55781968 77.87819691 8.17237941 77.11520031 6.78515625 76.35546875 C-4.46288976 70.09699573 -11.15330779 61.31782314 -15 49 C-18.49288086 34.7597934 -13.37479513 19.20728197 -6 7 C-4.11179263 4.5136371 -2.13646167 2.28551713 0 0 Z M-1 7 C-8.91976235 20.57673546 -14.75012152 34.52304098 -10.8671875 50.61328125 C-8.82381699 56.23715235 -5.61762793 62.08696924 -1 66 C-0.34 66 0.32 66 1 66 C1 66.66 1 67.32 1 68 C10.57951908 73.49377067 10.57951908 73.49377067 20.1875 78.9375 C20.86167969 79.31777344 21.53585937 79.69804688 22.23046875 80.08984375 C24.15405604 81.13619102 24.15405604 81.13619102 27 82 C30.02615019 76.28022783 30.02615019 76.28022783 31 70 C27.48590368 59.45771105 22.46895929 51.82776262 13.9609375 44.65625 C9.48943788 40.87952522 6.02334567 37.61620248 4 32 C4.49886719 32.58265625 4.99773437 33.1653125 5.51171875 33.765625 C9.45956851 38.27340318 13.40686757 42.41917652 17.93017578 46.33789062 C24.98849157 52.47909307 29.1952678 58.42205832 33 67 C33.804375 66.195625 34.60875 65.39125 35.4375 64.5625 C36.625 63.375 37.8125 62.1875 39 61 C39.99 63.97 40.98 66.94 42 70 C45.03121648 63.93756705 44.92881095 57.19659837 43.46484375 50.58203125 C40.2059158 41.37511459 33.69927897 34.34963948 25 30 C24.01 30 23.02 30 22 30 C22 29.34 22 28.68 22 28 C20.18242421 26.89572571 18.31848467 25.86742136 16.4375 24.875 C8.66686062 20.46736139 3.49905009 15.23305904 0 7 C-0.33 7 -0.66 7 -1 7 Z M37 68 C34.43198894 71.831954 34.85436072 75.70904333 35 80.125 C35.10989008 86.67737014 34.76932216 92.64764196 33 99 C32.566875 100.7325 32.566875 100.7325 32.125 102.5 C30.7951657 105.45518734 29.8695569 105.74529496 27 107 C30.79332703 119.34849011 36.66606086 127.52906589 48 134 C50.31073087 135.12574068 52.5964831 136.07950417 55 137 C56.46236093 135.0862931 57.91994246 133.16924767 59.375 131.25 C59.7875 130.71117187 60.2 130.17234375 60.625 129.6171875 C62.71684645 126.85055187 64.59564418 124.1790912 66 121 C61.31695463 114.95461416 56.54248825 109.27079765 51 104 C47.36961282 100.53846804 44.65058121 97.221296 42 93 C43.23357261 94.23357261 44.29216192 95.63220453 45.375 97 C48.09495884 100.21033604 51.06308968 102.72277013 54.375 105.3125 C59.80020967 109.61704392 63.93390424 114.41931269 68 120 C71.96 117.525 71.96 117.525 76 115 C75.9175 116.464375 75.835 117.92875 75.75 119.4375 C75.71800743 125.04419831 77.36271795 129.12573764 80 134 C83.85969148 127.2653943 83.53247314 119.14316961 81.9375 111.75 C77.94279695 98.07170874 66.73172343 92.46422724 54.99365234 85.99804688 C50.13819043 83.24962146 46.65643358 80.17878124 43 76 C42.01 76.66 41.02 77.32 40 78 C40.226875 77.278125 40.45375 76.55625 40.6875 75.8125 C41.08519221 72.23327008 40.10849785 70.83836249 38 68 C37.67 68 37.34 68 37 68 Z M31 80 C29.0921416 83.1749094 28.8390959 85.10585211 29.375 88.75 C29.48585938 89.54921875 29.59671875 90.3484375 29.7109375 91.171875 C29.80632812 91.77515625 29.90171875 92.3784375 30 93 C30.66 92.67 31.32 92.34 32 92 C32.46842712 89.97666066 32.46842712 89.97666066 32.625 87.625 C32.69976562 86.83351563 32.77453125 86.04203125 32.8515625 85.2265625 C32.96749782 83.48753275 33 81.74288998 33 80 C32.34 80 31.68 80 31 80 Z M30 94 C31 96 31 96 31 96 Z M70 123 C70.20496094 123.96679688 70.40992188 124.93359375 70.62109375 125.9296875 C74.462913 144.36282643 74.462913 144.36282643 73.5625 151.4375 C74.17890407 156.45679028 76.83855077 159.22013524 79.89453125 163.15234375 C83.93046399 168.61096149 86.53265565 174.70938332 89 181 C91.97 180.01 94.94 179.02 98 178 C97.67257812 178.84820312 97.34515625 179.69640625 97.0078125 180.5703125 C95.94067172 184.20190011 95.79802782 187.10336301 95.875 190.875 C95.90207031 192.60363281 95.90207031 192.60363281 95.9296875 194.3671875 C95.95289063 195.23601562 95.97609375 196.10484375 96 197 C98.48971237 194.76637233 99.79842208 192.68553017 101.125 189.625 C101.45757812 188.87476563 101.79015625 188.12453125 102.1328125 187.3515625 C105.03769835 179.47434953 105.30986015 171.07428067 102 163.3125 C97.53572412 155.04652934 90.29598499 148.84263248 83.48706055 142.50537109 C82 141 82 141 81 139 C80.01 139 79.02 139 78 139 C78.33 138.34 78.66 137.68 79 137 C78.03265451 135.33216294 77.06075563 133.66668313 76.05859375 132.01953125 C74.37251974 128.80292511 73.74581366 125.54261487 73 122 C71.7763932 121.9254644 71.7763932 121.9254644 70 123 Z M67 127 C65.63353852 128.59370671 64.28212834 130.20032982 62.9375 131.8125 C62.18339844 132.70582031 61.42929687 133.59914062 60.65234375 134.51953125 C60.10707031 135.33808594 59.56179688 136.15664062 59 137 C59.67505919 140.17888621 59.67505919 140.17888621 62.375 141.25 C65.94968554 143.63312369 66.63724261 145.97986571 68 150 C68.39764263 151.98821313 68.75455166 153.98732362 69 156 C69.33 156 69.66 156 70 156 C70.97908069 150.99580979 70.92812275 146.69305893 70.31640625 141.63671875 C69.89324255 138.1103546 69.64228071 134.57279592 69.37890625 131.03125 C69.15707043 128.78010349 69.15707043 128.78010349 67 127 Z M70 142 C71 144 71 144 71 144 Z M56 143 C51.85768529 153.55117899 50.60956964 163.30129785 55 174 C56.76203303 177.20599132 58.76646689 180.10655938 61 183 C61.44859375 183.58910156 61.8971875 184.17820313 62.359375 184.78515625 C64.60876985 187.61078496 66.81264169 190.25209383 70 192 C73.71434277 191.55685715 76.15151416 189.66576282 79.125 187.5 C83.86754967 184.06622517 83.86754967 184.06622517 86 183 C85.5927285 176.57654244 84.04107854 172.54962811 80.5625 167.1875 C80.15451172 166.53330078 79.74652344 165.87910156 79.32617188 165.20507812 C77.59482175 162.44000183 75.8096079 159.71441185 74 157 C73.34 157 72.68 157 72 157 C71.81824219 157.56589844 71.63648438 158.13179687 71.44921875 158.71484375 C71.19785156 159.44832031 70.94648438 160.18179688 70.6875 160.9375 C70.32205078 162.03384766 70.32205078 162.03384766 69.94921875 163.15234375 C69 165 69 165 66 166 C65.34 165.67 64.68 165.34 64 165 C64.11859375 163.90300781 64.2371875 162.80601562 64.359375 161.67578125 C64.49073327 160.22145757 64.62087777 158.76702391 64.75 157.3125 C64.83121094 156.59126953 64.91242188 155.87003906 64.99609375 155.12695312 C65.30778926 151.33465777 65.19108175 149.31297873 63.1875 146.03125 C60.74117544 143.75966291 59.28653411 143.27387784 56 143 Z M81 189 C81 189.66 81 190.32 81 191 C79 192 77 193 75 194 C74.67460431 197.10055631 74.67460431 197.10055631 76.875 199.1875 C78.78811334 201.21631554 78.78811334 201.21631554 81 201 C81.103125 201.78375 81.20625 202.5675 81.3125 203.375 C81.77595022 206.33045181 81.77595022 206.33045181 85 208 C86.90120099 200.87049629 87.22424141 194.36259293 87 187 C84.91571791 187 82.90182036 188.21976601 81 189 Z M71 198 C63.71118314 206.23075627 59.5928755 215.46886839 59.79296875 226.4921875 C60.61549186 236.45558067 65.1429308 244.4772182 70 253 C74.95 253 79.9 253 85 253 C88.71601509 241.85195472 87.46834837 231.08632784 84 220 C82.02 220.99 82.02 220.99 80 222 C80 222.66 80 223.32 80 224 C78.35 224 76.7 224 75 224 C74.1673583 221.63823015 73.80918033 220.46506302 74.77734375 218.10546875 C75.16019531 217.47253906 75.54304688 216.83960938 75.9375 216.1875 C78.02760945 212.22729262 78.82506927 209.537881 78 205 C76.26816199 202.37911754 74.32191301 200.11609247 72 198 C71.67 198 71.34 198 71 198 Z M81 212 C82 215 82 215 82 215 Z M73 257 C73.20625 258.505625 73.4125 260.01125 73.625 261.5625 C74.11691421 266.2997012 73.64110926 269.5593514 72 274 C78.42832647 269.71444902 80.8865583 263.92243953 84 257 C80.37 257 76.74 257 73 257 Z M41.96484375 268.8828125 C33.7848937 277.74008326 31.01640756 287.45226694 30.8125 299.4375 C30.874375 300.613125 30.93625 301.78875 31 303 C31.02320313 303.84046875 31.04640625 304.6809375 31.0703125 305.546875 C31.81776061 308.35505055 31.81776061 308.35505055 35.16015625 309.58203125 C36.4540782 310.01333857 37.75544157 310.42281005 39.0625 310.8125 C39.72572266 311.02841797 40.38894531 311.24433594 41.07226562 311.46679688 C42.70888468 311.99663758 44.35377006 312.5008206 46 313 C53.1640877 304.62958826 56.56969709 295.19208851 59.2421875 284.625 C60.41511444 280.5620778 62.15360542 276.79588734 64 273 C65.32 273 66.64 273 68 273 C70.07727828 271.21947576 70.87809946 269.80388464 71.2890625 267.09375 C71.4296746 263.66792791 71.29879706 261.54326737 69.625 258.5 C63.53223295 252.87590734 46.87848708 264.33698509 41.96484375 268.8828125 Z M65 273 C64.67 273.66 64.34 274.32 64 275 C64.66 275 65.32 275 66 275 C65.67 274.34 65.34 273.68 65 273 Z M-12.6875 321.3125 C-20.25768873 330.1102869 -23.3348897 340.03810416 -25.0625 351.4375 C-25.74229287 355.81006599 -26.34848916 359.34274367 -29 363 C-31.26824814 364.61005114 -33.48622542 365.76682757 -36 367 C-35.34 367.66 -34.68 368.32 -34 369 C-18.84718986 364.77790942 -18.84718986 364.77790942 -6 356 C-6 355.34 -6 354.68 -6 354 C-5.34 354 -4.68 354 -4 354 C-4 353.34 -4 352.68 -4 352 C-3.34 352 -2.68 352 -2 352 C-0.00985977 348.44352499 1.9651423 344.87886302 3.9375 341.3125 C4.50146484 340.30509766 5.06542969 339.29769531 5.64648438 338.25976562 C6.18466797 337.28330078 6.72285156 336.30683594 7.27734375 335.30078125 C7.77484131 334.40528564 8.27233887 333.50979004 8.78491211 332.5871582 C9.98580573 330.03022237 10.57682415 327.78243602 11 325 C11.886875 324.71125 12.77375 324.4225 13.6875 324.125 C16.50826422 323.1670046 19.25560867 322.15553319 22 321 C22.721875 320.71125 23.44375 320.4225 24.1875 320.125 C26.49063307 318.69546913 27.1038399 317.53912027 28 315 C28 313.68 28 312.36 28 311 C25.3541898 310.832959 22.70835369 310.66634934 20.0625 310.5 C19.30775391 310.45230469 18.55300781 310.40460938 17.77539062 310.35546875 C6.24163483 309.63137646 -3.97945336 313.81952964 -12.6875 321.3125 Z M32 312 C31.76925781 312.59167969 31.53851563 313.18335938 31.30078125 313.79296875 C29.18776069 318.91265887 27.20411055 322.37979369 23 326 C24.98 325.67 26.96 325.34 29 325 C29.33 323.68 29.66 322.36 30 321 C30.66 321 31.32 321 32 321 C33.35712166 319.44144019 33.35712166 319.44144019 34.625 317.5 C35.07101562 316.8503125 35.51703125 316.200625 35.9765625 315.53125 C36.31429687 315.0259375 36.65203125 314.520625 37 314 C34.525 313.01 34.525 313.01 32 312 Z " fill="#51C448" transform="translate(344,22)"/>
<path d="M0 0 C0.66 0 1.32 0 2 0 C10.07242234 15.28199669 16.08553329 29.63570941 12.30859375 47.21875 C8.48423973 58.61180466 1.16600136 68.36088281 -9.59765625 73.94921875 C-16.20043573 77.1814127 -22.95189976 79.89793502 -30 82 C-30.92681036 85.83458945 -30.99116404 89.19439102 -30.8125 93.125 C-30.76339533 104.02623723 -35.11833464 113.60462267 -42 122 C-48.05086497 127.45584799 -56.49031746 134 -65 134 C-64.67 135.216875 -64.34 136.43375 -64 137.6875 C-61.42816729 149.59620362 -62.82062921 161.05163591 -68.51171875 171.875 C-69.00285156 172.57625 -69.49398437 173.2775 -70 174 C-70.66 174 -71.32 174 -72 174 C-72.226875 174.56203125 -72.45375 175.1240625 -72.6875 175.703125 C-74.36929635 178.64626861 -76.4710911 180.50044732 -79 182.75 C-79.886875 183.54921875 -80.77375 184.3484375 -81.6875 185.171875 C-84 187 -84 187 -86 187 C-85.51789063 187.76183594 -85.03578125 188.52367187 -84.5390625 189.30859375 C-80.77583887 195.46031238 -77.6566851 200.76494314 -77 208 C-76.84337891 209.55460937 -76.84337891 209.55460937 -76.68359375 211.140625 C-76.00356753 224.04665451 -80.55196567 235.27521472 -89 245 C-87.86820313 245.56589844 -86.73640625 246.13179687 -85.5703125 246.71484375 C-80.71354167 249.14322917 -75.85677083 251.57161458 -71 254 C-71 254.66 -71 255.32 -71 256 C-70.11828125 256.37125 -70.11828125 256.37125 -69.21875 256.75 C-63.10842778 260.19243505 -59.04724408 267.63293769 -56.71875 274.06640625 C-54.38959231 283.572914 -54.26069809 293.58223476 -57 303 C-56.11699219 302.96519531 -55.23398438 302.93039062 -54.32421875 302.89453125 C-39.81337262 302.56721893 -28.618281 305.70537351 -17.75 315.625 C-7.25695934 326.88117089 -5.04690211 342.08010123 -4.40625 356.921875 C-3.82634921 359.88829056 -2.90351562 361.64138189 -1 364 C2.34532144 365.05686588 5.60138385 365.50589543 9.06640625 366.03125 C12 367 12 367 13.40234375 369.59375 C13.59957031 370.3878125 13.79679688 371.181875 14 372 C11.21790857 374.78209143 9.45094645 374.33241023 5.5625 374.375 C-7.34505946 374.15109336 -18.41540287 368.44435535 -27.8125 359.6875 C-32.70086204 354.39177446 -36.35716768 348.68210399 -38.21484375 341.68359375 C-39.88509752 335.0335653 -39.88509752 335.0335653 -43 329 C-47.62205874 326.67346037 -51.85983775 326.10561977 -57 326 C-55.33917057 346.78224463 -55.33917057 346.78224463 -45 364 C-35.79679486 370.36555022 -26.08398586 372.50381754 -15 372 C-17.69510494 374.69510494 -19.17222105 374.33022855 -22.9375 374.375 C-34.72781397 374.15401286 -43.25267459 369.69555565 -51.52734375 361.484375 C-58.12744139 353.54018453 -59.32692998 341.26421364 -60.96142578 331.33032227 C-61.53979961 327.91998538 -62.07032184 324.90810653 -64 322 C-65.98768394 320.64837492 -67.9866347 319.31306433 -70 318 C-70 317.34 -70 316.68 -70 316 C-70.66 316 -71.32 316 -72 316 C-72 315.34 -72 314.68 -72 314 C-72.66 314 -73.32 314 -74 314 C-84.66302556 301.85984536 -86.90315014 289.47221035 -89 274 C-89.92377441 274.29185181 -89.92377441 274.29185181 -90.86621094 274.58959961 C-93 275 -93 275 -95.140625 273.56640625 C-95.83671875 272.90511719 -96.5328125 272.24382812 -97.25 271.5625 C-97.95640625 270.90378906 -98.6628125 270.24507813 -99.390625 269.56640625 C-99.92171875 269.04949219 -100.4528125 268.53257812 -101 268 C-103.33355091 270.33355091 -102.52723922 275.79425185 -102.6875 278.9375 C-102.74744141 279.85080078 -102.80738281 280.76410156 -102.86914062 281.70507812 C-103.32604002 290.54889799 -102.30685468 298.16935512 -98 306 C-98 306.66 -98 307.32 -98 308 C-97.34 308 -96.68 308 -96 308 C-96 308.66 -96 309.32 -96 310 C-95.34 310 -94.68 310 -94 310 C-94 310.66 -94 311.32 -94 312 C-86.47590813 315.95426726 -78.22802222 318.89515711 -70 321 C-70 321.33 -70 321.66 -70 322 C-79.17438722 322.81550109 -87.36133126 318.75294944 -95 314 C-95 313.34 -95 312.68 -95 312 C-95.66 312 -96.32 312 -97 312 C-97 311.34 -97 310.68 -97 310 C-97.66 310 -98.32 310 -99 310 C-108.02958521 299.81277566 -107.32147812 286.91930905 -106.8828125 274.06640625 C-106.64437741 262.50230453 -108.02898522 252.77069588 -116 244 C-114.68 244 -113.36 244 -112 244 C-112.16048828 242.90945313 -112.16048828 242.90945313 -112.32421875 241.796875 C-113.53553798 231.63742337 -111.50774925 223.71341973 -107.75 214.3125 C-105.38413585 208.09648429 -105.93129024 203.20612928 -108 197 C-108.31075033 189.29521981 -108.24412973 181.62029462 -107 174 C-107.66 174 -108.32 174 -109 174 C-108.938125 174.94875 -108.87625 175.8975 -108.8125 176.875 C-108.89130732 189.9570146 -117.43447684 201.32140226 -124.265625 211.859375 C-128.31705667 219.19575126 -129.14554189 226.61825955 -127.41796875 234.734375 C-125.33710212 241.46156027 -121.91550036 245.90041824 -117.0234375 250.90625 C-115 253 -115 253 -113 256 C-119.20788085 254.49505919 -122.88406708 249.18696069 -126.265625 244.09375 C-127.24206164 242.43235035 -128.125244 240.71711364 -129 239 C-129.5878125 237.8553125 -129.5878125 237.8553125 -130.1875 236.6875 C-133.37215117 226.15365383 -131.58487975 217.37682192 -126.5703125 207.828125 C-124.31773174 203.77123826 -122.02382256 199.73810529 -119.67919922 195.73364258 C-118.1854476 193.16863283 -116.94215756 190.82647267 -116 188 C-116.96047922 186.27776141 -117.92735727 184.55843874 -118.94140625 182.8671875 C-123.13704365 175.46676434 -123.3067083 165.86615804 -121.13671875 157.78515625 C-119.92351125 154.42788023 -118.59615361 151.19230721 -117 148 C-116.34 148 -115.68 148 -115 148 C-114.773125 147.443125 -114.54625 146.88625 -114.3125 146.3125 C-111.32438313 141.04772266 -105.87921701 136.57645378 -101 133 C-100.34 133 -99.68 133 -99 133 C-99 132.34 -99 131.68 -99 131 C-98.154375 130.2575 -97.30875 129.515 -96.4375 128.75 C-95.2309375 127.38875 -95.2309375 127.38875 -94 126 C-94.29098694 123.12565725 -94.29098694 123.12565725 -95 120 C-96.00901859 108.90079553 -93.90556869 99.73819571 -87.125 90.75 C-81.22292398 84.53796813 -72.67607356 81.22345749 -65.05078125 77.59765625 C-62.66473467 76.45396164 -60.32480079 75.26311379 -58 74 C-57.28585938 73.62230469 -56.57171875 73.24460937 -55.8359375 72.85546875 C-53.59011732 71.37465903 -52.36199622 70.3335831 -51 68 C-50.60096356 64.43059715 -50.69391708 61.05469445 -50.8671875 57.46875 C-51.20672567 48.60081199 -48.14235032 40.93935949 -42.45703125 34.16015625 C-37.68589988 29.51541247 -32.02451523 26.83381513 -26.0859375 23.99560547 C-20.83391593 21.4790118 -15.97531951 18.60055936 -11.13671875 15.34765625 C-9 14 -9 14 -6 13 C-4.87151132 11.20292338 -4.87151132 11.20292338 -4 9 C-3.64679688 8.22140625 -3.29359375 7.4428125 -2.9296875 6.640625 C-2.58164063 5.85171875 -2.23359375 5.0628125 -1.875 4.25 C-1.52179688 3.45078125 -1.16859375 2.6515625 -0.8046875 1.828125 C-0.53914062 1.22484375 -0.27359375 0.6215625 0 0 Z M1 7 C0.00466743 8.34232924 -0.97050933 9.69961198 -1.9375 11.0625 C-8.04937198 19.01168319 -15.91868502 23.21489618 -25 27 C-34.47402011 31.04057546 -41.90275126 35.3215574 -46.375 44.96484375 C-48.46925418 50.73131447 -49.67991859 55.8807327 -49 62 C-48.34 62.66 -47.68 63.32 -47 64 C-46.01 61.69 -45.02 59.38 -44 57 C-43.38125 57.78375 -42.7625 58.5675 -42.125 59.375 C-40.10141339 61.96837647 -40.10141339 61.96837647 -38 64 C-37.34 62.88625 -36.68 61.7725 -36 60.625 C-35.62875 59.99851563 -35.2575 59.37203125 -34.875 58.7265625 C-33.84931652 57.02527333 -33.84931652 57.02527333 -34 55 C-33.34 55 -32.68 55 -32 55 C-31.0396716 53.91203302 -30.13303492 52.77658678 -29.25 51.625 C-25.89469808 47.63395667 -22.20519555 44.85251337 -17.9375 41.9375 C-12.79942306 38.42403148 -8.73796125 35.05724169 -5 30 C-8.60571076 37.86700529 -14.79390689 41.94719048 -21.6640625 46.93359375 C-27.82018076 51.55533208 -31.60359076 56.09006397 -35 63 C-35.53625 63.99 -36.0725 64.98 -36.625 66 C-37.22795871 70.82366971 -35.05526308 74.70263174 -33 79 C-9.02536327 70.5224757 -9.02536327 70.5224757 7.1484375 51.703125 C11.94620677 38.58628791 9.24116778 23.17218285 3.8125 10.75 C3.21845301 9.49515916 2.61837681 8.24303157 2 7 C1.67 7 1.34 7 1 7 Z M-44 64 C-46.36301527 67.40274199 -47 68.73012377 -47 73 C-47.66 72.34 -48.32 71.68 -49 71 C-49.86044922 71.70962891 -49.86044922 71.70962891 -50.73828125 72.43359375 C-56.75494924 77.11728219 -62.68989204 80.3920892 -69.625 83.5 C-79.05875798 87.78640297 -86.89102885 92.25110512 -91.34375 102.04296875 C-92.86922334 106.59214818 -93.16022832 110.9040471 -93.1875 115.6875 C-93.20167969 116.82574219 -93.21585938 117.96398437 -93.23046875 119.13671875 C-93.30071071 122.13135255 -93.30071071 122.13135255 -91 124 C-87.11610199 118.2367965 -86.38005738 113.93604713 -86 107 C-83.36 108.98 -80.72 110.96 -78 113 C-76.96875 111.72125 -75.9375 110.4425 -74.875 109.125 C-71.25791872 105.01790415 -67.42257757 101.99539954 -62.9375 98.9375 C-56.1517937 94.28949768 -49.33583903 89.30520544 -47 81 C-47.433125 82.3303125 -47.433125 82.3303125 -47.875 83.6875 C-48.83148748 86.50382424 -49.86798946 89.25083156 -51 92 C-51.66 92 -52.32 92 -53 92 C-53.86625 93.11375 -53.86625 93.11375 -54.75 94.25 C-57.88947051 98.08713063 -61.67122089 100.23665881 -65.9375 102.6875 C-70.0059084 105.75956348 -73.75084471 109.36892678 -76 114 C-74.98911331 118.12441768 -72.53105254 121.6791522 -70.375 125.3125 C-69.74335937 126.38113281 -69.11171875 127.44976562 -68.4609375 128.55078125 C-67.97882813 129.35902344 -67.49671875 130.16726562 -67 131 C-55.11334356 127.12472643 -45.58870014 121.9125346 -39 111 C-37.29624298 107.51135466 -37 105.9875444 -37 102 C-37.680625 101.38125 -37.680625 101.38125 -38.375 100.75 C-43.00473628 95.76413016 -42.28109828 87.5444798 -42.21484375 81.19140625 C-42.0199297 78.2960467 -41.56308262 75.7925403 -40.8125 73 C-39.94239392 69.718975 -39.89199508 69.25201149 -41.3125 65.9375 C-41.869375 65.298125 -42.42625 64.65875 -43 64 C-43.33 64 -43.66 64 -44 64 Z M-39 76 C-39.77313045 81.9114744 -40.14819277 87.1314592 -39 93 C-38.67 93 -38.34 93 -38 93 C-36.44309475 87.32565937 -35.55727702 82.7708919 -37 77 C-37.66 76.67 -38.32 76.34 -39 76 Z M-83 114 C-83.40992188 114.81984375 -83.81984375 115.6396875 -84.2421875 116.484375 C-89 126 -89 126 -90.1953125 128.328125 C-91.0722815 129.84093574 -91.0722815 129.84093574 -91 131 C-91.99 131 -92.98 131 -94 131 C-95.72943475 132.31267956 -95.72943475 132.31267956 -97 134 C-97 134.66 -97 135.32 -97 136 C-98.65 136.66 -100.3 137.32 -102 138 C-102 138.66 -102 139.32 -102 140 C-103.65 140.66 -105.3 141.32 -107 142 C-107 142.66 -107 143.32 -107 144 C-107.59683594 144.268125 -108.19367188 144.53625 -108.80859375 144.8125 C-113.98265604 147.61626994 -117.02925464 152.25650197 -118.875 157.75 C-121.55772121 168.44856291 -119.80018342 176.17676749 -115 186 C-112.62409858 182.29583874 -112.79499714 179.07015427 -112.875 174.75 C-112.90207031 172.85507813 -112.90207031 172.85507813 -112.9296875 170.921875 C-112.95289063 169.95765625 -112.97609375 168.9934375 -113 168 C-112.05125 168.495 -111.1025 168.99 -110.125 169.5 C-107.27721834 171.14424369 -107.27721834 171.14424369 -105 171 C-104.72027344 170.3709375 -104.44054687 169.741875 -104.15234375 169.09375 C-101.52156854 163.47691804 -98.65700325 159.06954709 -94.35546875 154.59375 C-92.78404494 153.094783 -92.78404494 153.094783 -93 151 C-92.34 151 -91.68 151 -91 151 C-87.13723714 146.34712655 -86.3794033 142.67412097 -86 136.75 C-85.46818163 130.61195722 -84.50124468 125.55902206 -81.70703125 119.98046875 C-80.85280583 117.58769368 -81.16751311 116.3595966 -82 114 C-82.33 114 -82.66 114 -83 114 Z M-79 119 C-79.6987693 120.76641683 -80.38366583 122.53832664 -81.0625 124.3125 C-81.44535156 125.29863281 -81.82820313 126.28476563 -82.22265625 127.30078125 C-83.29389848 130.06233263 -83.29389848 130.06233263 -82 133 C-82.33984375 135.12109375 -82.33984375 135.12109375 -82.9375 137.4375 C-83.73045962 140.54107042 -84 142.71321742 -84 146 C-83.34 146 -82.68 146 -82 146 C-81.608125 144.7625 -81.21625 143.525 -80.8125 142.25 C-79.33050669 138.28162929 -77.65650816 136.2853176 -74 134 C-73.01 133.67 -72.02 133.34 -71 133 C-72.43967644 127.76481294 -74.81696611 123.36973991 -78 119 C-78.33 119 -78.66 119 -79 119 Z M-84 133 C-83 137 -83 137 -83 137 Z M-74.5625 138.25 C-75.18253906 138.66765625 -75.80257812 139.0853125 -76.44140625 139.515625 C-79.1687991 142.113142 -78.98695442 144.56793049 -79.09765625 148.234375 C-79.08605469 149.39453125 -79.07445313 150.5546875 -79.0625 151.75 C-79.05347656 152.92046875 -79.04445313 154.0909375 -79.03515625 155.296875 C-79.02355469 156.18890625 -79.01195313 157.0809375 -79 158 C-80.32 158 -81.64 158 -83 158 C-84.32 155.03 -85.64 152.06 -87 149 C-93.73180195 155.32381395 -99.45150904 162.42448017 -103 171 C-101.75165856 174.74502433 -100.13825974 175.76484276 -97.0625 178.1875 C-96.16660156 178.90292969 -95.27070312 179.61835938 -94.34765625 180.35546875 C-92.20471204 182.19124557 -92.20471204 182.19124557 -90 182 C-90 182.66 -90 183.32 -90 184 C-86.34603593 183.38821244 -84.13957441 181.8335544 -81.25 179.5625 C-80.45078125 178.94503906 -79.6515625 178.32757813 -78.828125 177.69140625 C-77.92320313 176.85416016 -77.92320313 176.85416016 -77 176 C-77 175.34 -77 174.68 -77 174 C-76.34 174 -75.68 174 -75 174 C-68.61669819 163.15693598 -64.31495691 153.90899243 -67.48925781 141.01220703 C-67.96374069 139.33297588 -68.47818803 137.66513168 -69 136 C-71.55161161 136 -72.48006474 136.80664195 -74.5625 138.25 Z M-104 177 C-105.20262933 180.607888 -105.13247114 183.57218762 -105.125 187.375 C-105.12757812 188.68210938 -105.13015625 189.98921875 -105.1328125 191.3359375 C-105.0224678 194.38015313 -104.71706674 197.05205898 -104 200 C-103.67 200 -103.34 200 -103 200 C-103 196.7 -103 193.4 -103 190 C-102.34 192.31 -101.68 194.62 -101 197 C-100.34 196.01 -99.68 195.02 -99 194 C-95.30769231 189.15384615 -95.30769231 189.15384615 -93 188 C-94.3282086 183.71616238 -95.82522516 182.0216474 -99.625 179.6875 C-100.44226563 179.17574219 -101.25953125 178.66398438 -102.1015625 178.13671875 C-102.72804688 177.76160156 -103.35453125 177.38648438 -104 177 Z M-95 193 C-97.28791186 196.50336503 -98.33043377 198.32932683 -97.51171875 202.46875 C-96.96278915 204.19618723 -96.38323149 205.91419177 -95.7734375 207.62109375 C-94.84195319 210.48611366 -94.76379938 213.00812554 -95 216 C-98.91402949 214.73058503 -100.79072873 213.48832306 -103 210 C-109.24560168 220.98364433 -110.69178283 231.54603243 -109 244 C-103.79290656 245.18686056 -99.31434294 245.83020084 -94 245 C-86.375445 238.19860883 -81.53234518 227.32998357 -80.796875 217.203125 C-80.62623203 206.4526178 -83.53684847 199.13404387 -89 190 C-91.43726203 190 -93.13390308 191.62264275 -95 193 Z M-102 203 C-101 205 -101 205 -101 205 Z M-101 205 C-100 207 -100 207 -100 207 Z M-108 247 C-105.70190638 253.89428086 -103.53755525 259.32805594 -99 265 C-97.44520103 261.89040206 -98.44747631 258.97132122 -98.94140625 255.60546875 C-99 253 -99 253 -97 248 C-100.63 247.67 -104.26 247.34 -108 247 Z M-93 249 C-95.4056808 252.94075703 -95.4056808 252.94075703 -95.6875 257.375 C-95.460625 257.91125 -95.23375 258.4475 -95 259 C-94.34 259 -93.68 259 -93 259 C-92.7525 259.66 -92.505 260.32 -92.25 261 C-91.13934377 263.82061885 -91.13934377 263.82061885 -90.07324219 265.67602539 C-87.06649372 271.12235973 -85.95119456 276.32959789 -85 282.4375 C-83.47878582 292.16341103 -81.21776772 299.22779035 -75 307 C-70.38 306.01 -65.76 305.02 -61 304 C-58.8442006 291.23103433 -57.36934195 278.33881141 -64.6484375 266.82421875 C-72.09804367 256.76940348 -81.19438637 251.91522158 -93 249 Z M-95 261 C-94.34 262.32 -93.68 263.64 -93 265 C-92.67 264.34 -92.34 263.68 -92 263 C-92.33 262.34 -92.66 261.68 -93 261 C-93.66 261 -94.32 261 -95 261 Z M-92 265 C-91.67 265.99 -91.34 266.98 -91 268 C-91 267.01 -91 266.02 -91 265 C-91.33 265 -91.66 265 -92 265 Z M-58 307 C-57.77139942 308.46184058 -57.51629608 309.91955419 -57.25 311.375 C-57.11078125 312.18710937 -56.9715625 312.99921875 -56.828125 313.8359375 C-56.18923189 316.15428267 -56.18923189 316.15428267 -54.04296875 317.23046875 C-53.36878906 317.48441406 -52.69460937 317.73835938 -52 318 C-50.65812182 318.6492959 -49.32520503 319.31731862 -48 320 C-46.7934375 320.53947266 -46.7934375 320.53947266 -45.5625 321.08984375 C-42.11186618 323.66203877 -41.22274846 326.67874417 -39.9375 330.625 C-39.42741041 332.07609455 -38.91570145 333.5266209 -38.40234375 334.9765625 C-38.16112793 335.67297852 -37.91991211 336.36939453 -37.67138672 337.08691406 C-33.0642641 350.21470056 -25.4349212 359.7721831 -13.0625 366.375 C-7.9164301 368.83360519 -3.67866877 369.81071104 2 370 C1.01 369.34 0.02 368.68 -1 368 C-5.08603008 365.24818383 -6.64733912 364.04034958 -8.25 359.3125 C-8.79201257 356.16566976 -9.09572433 353.01410456 -9.37890625 349.8359375 C-10.49055375 337.6597612 -12.19219104 325.45715731 -22 317 C-33.18312437 308.30403154 -44.08268613 306.39392343 -58 307 Z M-68 308 C-67.59007813 308.51949219 -67.18015625 309.03898437 -66.7578125 309.57421875 C-62.18221839 315.49621973 -62.18221839 315.49621973 -60.9375 318.9375 C-60.628125 319.618125 -60.31875 320.29875 -60 321 C-57.47586743 321.66115854 -57.47586743 321.66115854 -55 322 C-55.63228516 321.12988281 -55.63228516 321.12988281 -56.27734375 320.2421875 C-61.71880492 312.48330404 -61.71880492 312.48330404 -62 307 C-64.02450921 307 -66.02400526 307.59466775 -68 308 Z " fill="#51C548" transform="translate(148,19)"/>
<path d="M0 0 C0.33 0 0.66 0 1 0 C1 3.96 1 7.92 1 12 C2.65 12 4.3 12 6 12 C6 11.01 6 10.02 6 9 C6.66 9 7.32 9 8 9 C8.495 10.485 8.495 10.485 9 12 C10.03447266 12.11214844 10.03447266 12.11214844 11.08984375 12.2265625 C18.93880798 13.32477149 25.39307971 15.47945346 30.48046875 21.85546875 C33.02683302 26.20949093 33.46027847 29.95078211 32.609375 34.89453125 C31.01191872 40.41394751 27.54031333 43.72088482 23 47 C23.53109375 47.30292969 24.0621875 47.60585937 24.609375 47.91796875 C29.60218663 50.87903404 33.33682775 53.6736555 36 59 C36.63114456 64.9594611 36.04264003 69.72609062 33 75 C31.10264363 76.9985487 29.2815493 78.39806113 27 80 C26.34 80 25.68 80 25 80 C24.505 81.485 24.505 81.485 24 83 C24 82.34 24 81.68 24 81 C22.5931897 81.48895752 22.5931897 81.48895752 21.15795898 81.98779297 C16.28206569 83.37305153 11.50709177 83.25012035 6.47265625 83.1953125 C4.98928017 83.19106766 4.98928017 83.19106766 3.47593689 83.18673706 C0.33799805 83.17560142 -2.79964839 83.15050903 -5.9375 83.125 C-8.07356357 83.11496165 -10.20963164 83.1058373 -12.34570312 83.09765625 C-17.56390073 83.0756838 -22.78192946 83.04227254 -28 83 C-28 82.34 -28 81.68 -28 81 C-27.43410156 80.87882812 -26.86820313 80.75765625 -26.28515625 80.6328125 C-25.55167969 80.46523437 -24.81820312 80.29765625 -24.0625 80.125 C-23.33160156 79.96257812 -22.60070312 79.80015625 -21.84765625 79.6328125 C-19.79299706 79.17038477 -19.79299706 79.17038477 -19 77 C-18.90871707 75.05955723 -18.88247752 73.1159244 -18.88647461 71.17333984 C-18.88655014 69.95222504 -18.88662567 68.73111023 -18.88670349 67.47299194 C-18.89181048 66.13564005 -18.89702648 64.79828857 -18.90234375 63.4609375 C-18.9042086 62.09616141 -18.90563219 60.73138466 -18.90663147 59.36660767 C-18.91045137 55.77284907 -18.92027717 52.17913083 -18.93133545 48.58538818 C-18.94156089 44.91891018 -18.94613152 41.25242565 -18.95117188 37.5859375 C-18.9618999 30.39060659 -18.97897001 23.19530895 -19 16 C-23.455 15.01 -23.455 15.01 -28 14 C-28 13.34 -28 12.68 -28 12 C-18.76 12 -9.52 12 0 12 C0 8.04 0 4.08 0 0 Z M1 16 C2.503093 25.71316919 4.12498679 34.89273546 8 44 C12.15654359 43.53816182 14.21466571 43.11990898 17 40 C15.87540455 37.1040094 14.75025125 34.20823584 13.625 31.3125 C13.30789062 30.49587891 12.99078125 29.67925781 12.6640625 28.83789062 C11.12751323 24.88447739 9.58633497 20.93379025 8 17 C5.69 16.67 3.38 16.34 1 16 Z M12 51 C12.67487737 55.81919471 14.57965909 59.91883866 16.5625 64.3125 C16.89185547 65.05306641 17.22121094 65.79363281 17.56054688 66.55664062 C18.36917123 68.37311562 19.18397116 70.18683931 20 72 C20.66 71.67 21.32 71.34 22 71 C23.56311512 66.31065463 23.52321579 62.48244475 21.875 57.8125 C19.66343715 54.49515573 17.46965536 52.91938381 14 51 C13.34 51 12.68 51 12 51 Z " fill="#428620" transform="translate(242,142)"/>
<path d="M0 0 C0.66 1.32 1.32 2.64 2 4 C3.46373047 3.89171875 3.46373047 3.89171875 4.95703125 3.78125 C6.86548828 3.64203125 6.86548828 3.64203125 8.8125 3.5 C10.70935547 3.36078125 10.70935547 3.36078125 12.64453125 3.21875 C26.58170548 2.31015657 41.95636437 2.59939114 53 12 C60.37797547 19.77982598 62.47572109 27.5642198 62.34936523 38.06860352 C62.04626994 46.85425717 59.82070461 53.10216916 54.234375 59.91796875 C47.12900344 66.53888316 38.46802262 69.18207736 29 69 C28.67 69.66 28.34 70.32 28 71 C28 70.34 28 69.68 28 69 C21.73 69 15.46 69 9 69 C9 70.98 9 72.96 9 75 C8.67 75 8.34 75 8 75 C8 73.02 8 71.04 8 69 C4.37 69 0.74 69 -3 69 C-3 68.34 -3 67.68 -3 67 C-1.865625 66.71125 -0.73125 66.4225 0.4375 66.125 C1.613125 65.75375 2.78875 65.3825 4 65 C5.23080509 62.53838983 5.12043977 60.93503007 5.11352539 58.18310547 C5.11344986 57.18221893 5.11337433 56.1813324 5.11329651 55.15011597 C5.10813522 54.06674957 5.10297394 52.98338318 5.09765625 51.8671875 C5.0962413 50.76021515 5.09482635 49.6532428 5.09336853 48.51272583 C5.08775772 44.96679007 5.07520337 41.42091677 5.0625 37.875 C5.05748639 35.47526133 5.05292325 33.07552167 5.04882812 30.67578125 C5.03778478 24.78383275 5.0210361 18.89192084 5 13 C4.34 13 3.68 13 3 13 C2.7525 12.030625 2.505 11.06125 2.25 10.0625 C1.8375 9.051875 1.425 8.04125 1 7 C-1.03243548 6.03122943 -1.03243548 6.03122943 -3 6 C-3 5.34 -3 4.68 -3 4 C-2.01 4 -1.02 4 0 4 C0 2.68 0 1.36 0 0 Z M4 8 C5 11 5 11 5 11 Z M16 9 C16 27.15 16 45.3 16 64 C19.01490557 65.00496852 21.04181692 65.10335303 24.1875 65.0625 C25.08855469 65.05347656 25.98960937 65.04445313 26.91796875 65.03515625 C27.60503906 65.02355469 28.29210937 65.01195312 29 65 C29.52004543 44.71022746 27.24767936 27.9518606 20 9 C18.68 9 17.36 9 16 9 Z " fill="#42861F" transform="translate(267,226)"/>
<path d="M0 0 C1.125 4.75 1.125 4.75 0 7 C0.66 7 1.32 7 2 7 C2.32871094 7.88558594 2.65742188 8.77117187 2.99609375 9.68359375 C5.80651577 17.07078703 8.95127175 24.18604772 12.625 31.1875 C12.99681396 31.90542725 13.36862793 32.62335449 13.75170898 33.36303711 C14.11466064 34.04116455 14.4776123 34.71929199 14.8515625 35.41796875 C15.32843506 36.31165161 15.32843506 36.31165161 15.81494141 37.22338867 C17.29290628 39.43911805 19.07564564 41.16806099 21 43 C23.38602494 37.82291267 25.77041839 32.64507827 28.15332031 27.46655273 C28.96374726 25.70593096 29.77461526 23.94551213 30.5859375 22.18530273 C31.75377276 19.65141507 32.92000643 17.11679556 34.0859375 14.58203125 C34.44746918 13.79850784 34.80900085 13.01498444 35.18148804 12.2077179 C35.69179062 11.09713264 35.69179062 11.09713264 36.21240234 9.96411133 C36.65874527 8.99481438 36.65874527 8.99481438 37.11410522 8.00593567 C38.13446108 5.69553915 39.06198609 3.34503477 40 1 C45.94 1 51.88 1 58 1 C58 1.66 58 2.32 58 3 C55.69 3.66 53.38 4.32 51 5 C51 22.49 51 39.98 51 58 C53.31 58.66 55.62 59.32 58 60 C58 60.66 58 61.32 58 62 C50.08 62 42.16 62 34 62 C36.475 65.465 36.475 65.465 39 69 C38.67 69.66 38.34 70.32 38 71 C37.62190186 70.53102295 37.24380371 70.0620459 36.85424805 69.57885742 C35.1337933 67.44694945 33.41067725 65.31720791 31.6875 63.1875 C31.09259766 62.44951172 30.49769531 61.71152344 29.88476562 60.95117188 C29.30791016 60.23896484 28.73105469 59.52675781 28.13671875 58.79296875 C27.60780029 58.1383667 27.07888184 57.48376465 26.53393555 56.80932617 C25.09616715 55.11343223 23.59627526 53.54606477 22 52 C21.82984375 52.63808594 21.6596875 53.27617187 21.484375 53.93359375 C21.24203125 54.75988281 20.9996875 55.58617187 20.75 56.4375 C20.51796875 57.26121094 20.2859375 58.08492188 20.046875 58.93359375 C19.70140625 59.61550781 19.3559375 60.29742187 19 61 C16.93457031 61.62915039 16.93457031 61.62915039 15 62 C12.81194177 57.3597479 10.62489329 52.71902165 8.4387207 48.07788086 C7.69712627 46.50386155 6.95527101 44.9299651 6.21313477 43.35620117 C2.08289201 34.59719006 -2.03195818 25.83412051 -6 17 C-6.07411371 22.49923749 -6.12858464 27.99818479 -6.16479492 33.49780273 C-6.17988873 35.36894799 -6.20036589 37.24005783 -6.22631836 39.11108398 C-6.26267593 41.79940526 -6.27972015 44.48725913 -6.29296875 47.17578125 C-6.30845261 48.01337479 -6.32393646 48.85096832 -6.33988953 49.71394348 C-6.48184616 54.00080325 -6.48184616 54.00080325 -4.64668274 57.70207214 C-2.51952757 59.37871202 -0.65151747 59.64168683 2 60 C2 60.66 2 61.32 2 62 C-5.26 62 -12.52 62 -20 62 C-20 61.34 -20 60.68 -20 60 C-17.69 59.01 -15.38 58.02 -13 57 C-12.97470729 49.91586059 -12.95715739 42.83173277 -12.94506836 35.74755859 C-12.94003026 33.33609583 -12.93319966 30.92463614 -12.92456055 28.51318359 C-12.91247213 25.05305221 -12.90676656 21.5929611 -12.90234375 18.1328125 C-12.89718246 17.04944611 -12.89202118 15.96607971 -12.88670349 14.84988403 C-12.88662796 13.8489975 -12.88655243 12.84811096 -12.88647461 11.81689453 C-12.88314369 10.49118942 -12.88314369 10.49118942 -12.87974548 9.13870239 C-12.86126056 6.94723225 -12.86126056 6.94723225 -14 5 C-15.97888961 4.27306096 -17.97954558 3.60183749 -20 3 C-20 2.34 -20 1.68 -20 1 C-17.04170322 0.832662 -14.08336635 0.66609948 -11.125 0.5 C-9.86236328 0.42845703 -9.86236328 0.42845703 -8.57421875 0.35546875 C-7.76855469 0.31035156 -6.96289062 0.26523438 -6.1328125 0.21875 C-5.38918457 0.17685547 -4.64555664 0.13496094 -3.87939453 0.09179688 C-2.58744125 0.0286929 -1.29349349 0 0 0 Z M18 44 C19 46 19 46 19 46 Z " fill="#42861F" transform="translate(174,232)"/>
<path d="M0 0 C7.38167144 -0.1526623 13.94898903 -0.17957257 20.015625 4.58203125 C26.26729685 10.61042911 29.14380517 16.34422217 30 25 C30.0121101 35.09981964 28.78089386 43.8292591 21.81640625 51.45703125 C17.88685103 54.79504052 13.1680307 57 8 57 C7.97812622 56.08057617 7.97812622 56.08057617 7.95581055 55.14257812 C7.61998827 42.45015734 6.82733365 30.40426233 4 18 C3.63678491 16.34011371 3.27486985 14.67994257 2.9140625 13.01953125 C1.96430826 8.67462554 0.98869415 4.33620176 0 0 Z " fill="#4BBF42" transform="translate(288,234)"/>
<path d="M0 0 C5.94 0 11.88 0 18 0 C18 0.66 18 1.32 18 2 C18.66 2 19.32 2 20 2 C21.18571704 4.49242561 22.34824164 6.99192387 23.5 9.5 C23.83386719 10.19609375 24.16773438 10.8921875 24.51171875 11.609375 C26.79854654 16.64973012 27.55462912 20.45973739 27 26 C22.25236918 30.08823765 17.04036499 30.13779738 11 30.125 C9.1746875 30.12886719 9.1746875 30.12886719 7.3125 30.1328125 C4 30 4 30 0 29 C0 19.43 0 9.86 0 0 Z " fill="#4CC043" transform="translate(234,191)"/>
<path d="M0 0 C0.33 0 0.66 0 1 0 C1.07597749 6.35368197 1.12856897 12.70724709 1.16479492 19.0612793 C1.17989444 21.22343321 1.20037571 23.38555643 1.22631836 25.54760742 C1.26265017 28.652909 1.27971462 31.75780614 1.29296875 34.86328125 C1.30845261 35.83211746 1.32393646 36.80095367 1.33988953 37.79914856 C1.34011612 38.6998558 1.34034271 39.60056305 1.34057617 40.52856445 C1.34723801 41.32132278 1.35389984 42.11408112 1.36076355 42.93086243 C0.902527 45.55905052 0.12612617 46.42485065 -2 48 C-5.375 48.5 -5.375 48.5 -9 48 C-12.12912246 45.49670203 -14.85262447 42.90107681 -16 39 C-15.55374088 33.90149927 -14.3143119 29.94187652 -12.12890625 25.33203125 C-11.84651596 24.72993332 -11.56412567 24.12783539 -11.2731781 23.50749207 C-10.37830549 21.60491326 -9.47065138 19.70877033 -8.5625 17.8125 C-7.95683521 16.52969647 -7.35201002 15.24649619 -6.74804688 13.96289062 C-4.54263954 9.28685551 -2.33100265 4.61506295 0 0 Z " fill="#4DC143" transform="translate(214,244)"/>
<path d="M0 0 C0.12375 1.134375 0.2475 2.26875 0.375 3.4375 C0.58125 4.613125 0.7875 5.78875 1 7 C1.66 7.33 2.32 7.66 3 8 C5.72717355 14.8929937 6.4301119 21.6562376 6 29 C4.04174127 29.02694851 2.08337774 29.04637218 0.125 29.0625 C-0.96554688 29.07410156 -2.05609375 29.08570313 -3.1796875 29.09765625 C-6 29 -6 29 -8 28 C-8 19.09 -8 10.18 -8 1 C-5.29120665 -0.35439668 -2.99066732 -0.06501451 0 0 Z " fill="#4BBC41" transform="translate(242,158)"/>
<path d="M0 0 C4.09294562 1.41678887 6.42893569 2.39965034 9.4375 5.5625 C11.47558257 10.04628164 11.88994774 14.14136641 11 19 C9.59765625 21.3046875 9.59765625 21.3046875 8 23 C7.34 23 6.68 23 6 23 C2.35051721 15.28356592 0.18548299 8.56594189 0 0 Z " fill="#47B33E" transform="translate(252,159)"/>
<path d="M0 0 C0 3.51598685 -0.43185327 3.83640019 -2.74609375 6.29296875 C-3.33245605 6.92001709 -3.91881836 7.54706543 -4.52294922 8.19311523 C-5.15475098 8.85126221 -5.78655273 9.50940918 -6.4375 10.1875 C-7.07187988 10.85789307 -7.70625977 11.52828613 -8.35986328 12.21899414 C-13.01446719 17.09139527 -17.8065431 21.69959786 -23 26 C-23.66 25.67 -24.32 25.34 -25 25 C-16.99042267 16.28256222 -9.04643869 7.66286571 0 0 Z " fill="#30782A" transform="translate(227,89)"/>
<path d="M0 0 C0.66 0.33 1.32 0.66 2 1 C-1.85918192 9.2900945 -6.72389244 16.55029363 -15 21 C-15.99 20.67 -16.98 20.34 -18 20 C-17.41992188 19.59910156 -16.83984375 19.19820313 -16.2421875 18.78515625 C-11.14316259 15.07447971 -7.56624279 11.5081716 -4.2890625 6.11328125 C-2.97932922 3.96611245 -1.53607555 1.98971189 0 0 Z " fill="#59C751" transform="translate(450,267)"/>
<path d="M0 0 C0.66 0 1.32 0 2 0 C0.60318936 5.0500077 -1.59943922 8.69594418 -4.625 12.875 C-5.04523438 13.46796875 -5.46546875 14.0609375 -5.8984375 14.671875 C-6.92565422 16.11931674 -7.9619063 17.56033919 -9 19 C-9.33 17.68 -9.66 16.36 -10 15 C-9.01 14.67 -8.02 14.34 -7 14 C-7 13.01 -7 12.02 -7 11 C-6.34 11 -5.68 11 -5 11 C-5 10.01 -5 9.02 -5 8 C-4.34 8 -3.68 8 -3 8 C-3 7.01 -3 6.02 -3 5 C-2.34 5 -1.68 5 -1 5 C-0.67 3.35 -0.34 1.7 0 0 Z " fill="#2B7326" transform="translate(256,354)"/>
<path d="M0 0 C3.875 1.75 3.875 1.75 5 4 C8.02934491 4.65772428 8.02934491 4.65772428 11 5 C10.67 5.66 10.34 6.32 10 7 C9.34 7 8.68 7 8 7 C10.475 10.465 10.475 10.465 13 14 C12.67 14.66 12.34 15.32 12 16 C9.99608502 13.52397473 7.99753584 11.04367345 6 8.5625 C5.42765625 7.85544922 4.8553125 7.14839844 4.265625 6.41992188 C3.72421875 5.74638672 3.1828125 5.07285156 2.625 4.37890625 C2.12226563 3.7557251 1.61953125 3.13254395 1.1015625 2.49047852 C0 1 0 1 0 0 Z " fill="#2B6821" transform="translate(200,287)"/>
<path d="M0 0 C0.33 0 0.66 0 1 0 C1 1.65 1 3.3 1 5 C2.32 5.33 3.64 5.66 5 6 C-0.75 10 -0.75 10 -3 10 C-2.49287967 6.28111761 -1.88391785 3.26545761 0 0 Z " fill="#2D7726" transform="translate(285,330)"/>
<path d="M0 0 C0.66 0.33 1.32 0.66 2 1 C2 1.66 2 2.32 2 3 C-0.31 3.66 -2.62 4.32 -5 5 C-5 4.01 -5 3.02 -5 2 C-2.625 0.9375 -2.625 0.9375 0 0 Z " fill="#60C757" transform="translate(348,391)"/>
<path d="M0 0 C0.66 0 1.32 0 2 0 C2.33 2.97 2.66 5.94 3 9 C0.90250005 6.64031256 0.03094296 5.45383006 -0.1875 2.25 C-0.125625 1.5075 -0.06375 0.765 0 0 Z " fill="#5BC454" transform="translate(426,133)"/>
<path d="M0 0 C2 3 2 3 1.625 5.1875 C1.315625 6.0846875 1.315625 6.0846875 1 7 C0.67 4.69 0.34 2.38 0 0 Z " fill="#62CB5B" transform="translate(383,105)"/>
<path d="M0 0 C0.66 0 1.32 0 2 0 C1.67 0.99 1.34 1.98 1 3 C0.34 2.67 -0.32 2.34 -1 2 C-0.67 1.34 -0.34 0.68 0 0 Z " fill="#46A53F" transform="translate(412,289)"/>
<path d="M0 0 C0.33 0.99 0.66 1.98 1 3 C0.34 3.66 -0.32 4.32 -1 5 C-0.67 3.35 -0.34 1.7 0 0 Z " fill="#65CC5E" transform="translate(145,43)"/>
<path d="M0 0 C0.99 1.485 0.99 1.485 2 3 C1.01 3.495 1.01 3.495 0 4 C0 2.68 0 1.36 0 0 Z " fill="#5FC557" transform="translate(345,46)"/>
<path d="" fill="#5BC655" transform="translate(0,0)"/>
<path d="M0 0 C2 1 2 1 2 1 Z " fill="#74D170" transform="translate(430,288)"/>
<path d="M0 0 C2 1 2 1 2 1 Z " fill="#6BC36B" transform="translate(35,275)"/>
<path d="" fill="#81D37B" transform="translate(0,0)"/>
<path d="" fill="#82CF7D" transform="translate(0,0)"/>
<path d="" fill="#87D780" transform="translate(0,0)"/>
<path d="" fill="#5FCB57" transform="translate(0,0)"/>
<path d="" fill="#9AD79A" transform="translate(0,0)"/>
<path d="" fill="#52C749" transform="translate(0,0)"/>
<path d="" fill="#85D880" transform="translate(0,0)"/>
<path d="" fill="#56AB56" transform="translate(0,0)"/>
<path d="" fill="#6ECF6E" transform="translate(0,0)"/>
</svg>
